<svg xmlns="http://www.w3.org/2000/svg" width="1800" height="900" viewBox="0 0 1800 900" role="img" aria-label="Profile and event fit summary">
  <rect width="1800" height="900" fill="#fbfaf7"/>
  <rect x="70" y="60" width="1660" height="780" rx="28" fill="#ffffff" stroke="#d7ded7" stroke-width="4"/>
  <text x="130" y="132" fill="#126853" font-size="32" font-weight="900">TAILORED EVENT GUIDE</text>
  <text x="130" y="214" fill="#17201c" font-size="82" font-weight="900">Night-Out Group</text>
  <g transform="translate(1510 94)">
    <circle cx="82" cy="82" r="82" fill="#eaf3ef"/>
    <circle cx="82" cy="82" r="60" fill="#126853"/>
    <text x="82" y="89" text-anchor="middle" fill="#ffffff" font-size="42" font-weight="900">56%</text>
    <text x="82" y="132" text-anchor="middle" fill="#ffffff" font-size="18" font-weight="800">FIT</text>
  </g>
  <g transform="translate(130 316)">
      <rect x="0" y="-46" width="1540" height="146" rx="20" fill="#f2f5f1"/>
      <circle cx="48" cy="20" r="30" fill="#b65f34"/>
      <text x="48" y="31" text-anchor="middle" fill="#ffffff" font-size="30" font-weight="900">1</text>
      <text x="110" y="-6" fill="#17201c" font-size="34" font-weight="900">Why this may fit you</text>
      <text x="110" y="40" fill="#3f4a45" font-size="25" font-weight="700">The Family Circus Comic Strip 2026-06-14 | Comics Kingdom is a 56% fit for Night-Out Group: the</text>
<text x="110" y="70.5" fill="#3f4a45" font-size="25" font-weight="700">profile points to a relaxed adult group outing and a manageable price. The source supports big</text>
<text x="110" y="101" fill="#3f4a45" font-size="25" font-weight="700">musical/social energy, so the main check is whether the price and show format work for the group.</text>
    </g>
<g transform="translate(130 494)">
      <rect x="0" y="-46" width="1540" height="146" rx="20" fill="#f2f5f1"/>
      <circle cx="48" cy="20" r="30" fill="#b65f34"/>
      <text x="48" y="31" text-anchor="middle" fill="#ffffff" font-size="30" font-weight="900">2</text>
      <text x="110" y="-6" fill="#17201c" font-size="34" font-weight="900">Plan your visit</text>
      <text x="110" y="40" fill="#3f4a45" font-size="25" font-weight="700">The event is scheduled for February 19. It takes place at 829 Read more Featured Creator St. Check</text>
<text x="110" y="70.5" fill="#3f4a45" font-size="25" font-weight="700">travel time, accessibility, seating, and arrival needs before you go.</text>
    </g>
<g transform="translate(130 672)">
      <rect x="0" y="-46" width="1540" height="146" rx="20" fill="#f2f5f1"/>
      <circle cx="48" cy="20" r="30" fill="#b65f34"/>
      <text x="48" y="31" text-anchor="middle" fill="#ffffff" font-size="30" font-weight="900">3</text>
      <text x="110" y="-6" fill="#17201c" font-size="34" font-weight="900">Good to know</text>
      <text x="110" y="40" fill="#3f4a45" font-size="25" font-weight="700">This guide highlights convenience and social energy and the practical details that can help you decide</text>
<text x="110" y="70.5" fill="#3f4a45" font-size="25" font-weight="700">whether to attend.</text>
    </g>
  <path d="M1512 760 C1560 716 1625 710 1676 746 C1628 796 1564 819 1480 812 C1483 791 1493 774 1512 760 Z" fill="#126853"/>
</svg>