<svg xmlns="http://www.w3.org/2000/svg" width="1800" height="900" viewBox="0 0 1800 900" role="img" aria-label="Profile and event fit summary">
  <rect width="1800" height="900" fill="#fbfaf7"/>
  <rect x="70" y="60" width="1660" height="780" rx="28" fill="#ffffff" stroke="#d7ded7" stroke-width="4"/>
  <text x="130" y="132" fill="#126853" font-size="32" font-weight="900">TAILORED EVENT GUIDE</text>
  <text x="130" y="214" fill="#17201c" font-size="82" font-weight="900">Family</text>
  <g transform="translate(1510 94)">
    <circle cx="82" cy="82" r="82" fill="#eaf3ef"/>
    <circle cx="82" cy="82" r="60" fill="#126853"/>
    <text x="82" y="89" text-anchor="middle" fill="#ffffff" font-size="42" font-weight="900">0%</text>
    <text x="82" y="132" text-anchor="middle" fill="#ffffff" font-size="18" font-weight="800">FIT</text>
  </g>
  <g transform="translate(130 316)">
      <rect x="0" y="-46" width="1540" height="146" rx="20" fill="#f2f5f1"/>
      <circle cx="48" cy="20" r="30" fill="#b65f34"/>
      <text x="48" y="31" text-anchor="middle" fill="#ffffff" font-size="30" font-weight="900">1</text>
      <text x="110" y="-6" fill="#17201c" font-size="34" font-weight="900">Why this may fit you</text>
      <text x="110" y="40" fill="#3f4a45" font-size="25" font-weight="700">Mission Dolores Neighborhood is a cautious 0% fit for Family: the profile asks for caregiver</text>
<text x="110" y="70.5" fill="#3f4a45" font-size="25" font-weight="700">reassurance, simple logistics, and age-appropriate fit, while the source points to source-page</text>
<text x="110" y="101" fill="#3f4a45" font-size="25" font-weight="700">details. Treat it as promising only if the practical notes work for your child.</text>
    </g>
<g transform="translate(130 494)">
      <rect x="0" y="-46" width="1540" height="146" rx="20" fill="#f2f5f1"/>
      <circle cx="48" cy="20" r="30" fill="#b65f34"/>
      <text x="48" y="31" text-anchor="middle" fill="#ffffff" font-size="30" font-weight="900">2</text>
      <text x="110" y="-6" fill="#17201c" font-size="34" font-weight="900">Plan your visit</text>
      <text x="110" y="40" fill="#3f4a45" font-size="25" font-weight="700">The event is scheduled for Sunday, May 31, 2026, 10:30 AM - 10:30 AM. It takes place at Dolores Park.</text>
<text x="110" y="70.5" fill="#3f4a45" font-size="25" font-weight="700">Check travel time, accessibility, seating, and arrival needs before you go.</text>
    </g>
<g transform="translate(130 672)">
      <rect x="0" y="-46" width="1540" height="146" rx="20" fill="#f2f5f1"/>
      <circle cx="48" cy="20" r="30" fill="#b65f34"/>
      <text x="48" y="31" text-anchor="middle" fill="#ffffff" font-size="30" font-weight="900">3</text>
      <text x="110" y="-6" fill="#17201c" font-size="34" font-weight="900">Good to know</text>
      <text x="110" y="40" fill="#3f4a45" font-size="25" font-weight="700">Check age guidance, content advisories, accessibility, and seating details before making this a child</text>
<text x="110" y="70.5" fill="#3f4a45" font-size="25" font-weight="700">outing.</text>
    </g>
  <path d="M1512 760 C1560 716 1625 710 1676 746 C1628 796 1564 819 1480 812 C1483 791 1493 774 1512 760 Z" fill="#126853"/>
</svg>